<svg width="37" height="37" viewBox="0 0 37 37" fill="none" xmlns="http://www.w3.org/2000/svg">
<path fill-rule="evenodd" clip-rule="evenodd" d="M11.2058 0.748246C13.0925 0.661391 13.694 0.64209 18.5 0.64209C23.306 0.64209 23.9076 0.662999 25.7927 0.748246C27.6778 0.833493 28.9645 1.13427 30.0904 1.57016C31.2694 2.01569 32.339 2.71214 33.2236 3.61287C34.1244 4.4959 34.8192 5.5639 35.2631 6.74449C35.7006 7.87039 35.9998 9.15714 36.0866 11.039C36.1735 12.9289 36.1928 13.5305 36.1928 18.3349C36.1928 23.1409 36.1719 23.7424 36.0866 25.6291C36.0014 27.511 35.7006 28.7977 35.2631 29.9236C34.8192 31.1044 34.1232 32.1742 33.2236 33.0585C32.339 33.9592 31.2694 34.654 30.0904 35.098C28.9645 35.5355 27.6778 35.8346 25.7959 35.9215C23.9076 36.0083 23.306 36.0276 18.5 36.0276C13.694 36.0276 13.0925 36.0067 11.2058 35.9215C9.32391 35.8362 8.03716 35.5355 6.91126 35.098C5.73054 34.654 4.66077 33.958 3.77642 33.0585C2.87631 32.1749 2.17975 31.1056 1.73532 29.9252C1.29943 28.7993 1.00026 27.5126 0.913408 25.6307C0.826552 23.7408 0.807251 23.1393 0.807251 18.3349C0.807251 13.5289 0.828161 12.9273 0.913408 11.0422C0.998655 9.15714 1.29943 7.87039 1.73532 6.74449C2.18041 5.56403 2.8775 4.49479 3.77803 3.61126C4.66112 2.71134 5.72982 2.0148 6.90965 1.57016C8.03555 1.13427 9.32391 0.835102 11.2058 0.748246ZM25.6495 3.93295C23.7837 3.8477 23.224 3.83001 18.5 3.83001C13.7761 3.83001 13.2163 3.8477 11.3505 3.93295C9.62469 4.01176 8.68858 4.29967 8.06451 4.54254C7.23938 4.86423 6.64908 5.24543 6.02984 5.86468C5.44283 6.43575 4.99108 7.13097 4.7077 7.89934C4.46483 8.52342 4.17692 9.45953 4.09811 11.1854C4.01286 13.0512 3.99517 13.6109 3.99517 18.3349C3.99517 23.0588 4.01286 23.6186 4.09811 25.4844C4.17692 27.2102 4.46483 28.1463 4.7077 28.7704C4.99079 29.5376 5.44276 30.2341 6.02984 30.8051C6.60083 31.3921 7.29728 31.8441 8.06451 32.1272C8.68858 32.3701 9.62469 32.658 11.3505 32.7368C13.2163 32.822 13.7744 32.8397 18.5 32.8397C23.2256 32.8397 23.7837 32.822 25.6495 32.7368C27.3754 32.658 28.3115 32.3701 28.9355 32.1272C29.7607 31.8055 30.351 31.4243 30.9702 30.8051C31.5573 30.2341 32.0093 29.5376 32.2924 28.7704C32.5352 28.1463 32.8231 27.2102 32.9019 25.4844C32.9872 23.6186 33.0049 23.0588 33.0049 18.3349C33.0049 13.6109 32.9872 13.0512 32.9019 11.1854C32.8231 9.45953 32.5352 8.52342 32.2924 7.89934C31.9707 7.07422 31.5895 6.48392 30.9702 5.86468C30.3991 5.27771 29.7039 4.82597 28.9355 4.54254C28.3115 4.29967 27.3754 4.01176 25.6495 3.93295ZM16.2402 23.7891C17.5022 24.3144 18.9076 24.3853 20.2161 23.9897C21.5247 23.594 22.6552 22.7563 23.4148 21.6197C24.1743 20.483 24.5157 19.118 24.3805 17.7576C24.2454 16.3972 23.6422 15.126 22.6739 14.161C22.0567 13.5441 21.3103 13.0718 20.4886 12.778C19.6669 12.4842 18.7902 12.3762 17.9218 12.4619C17.0533 12.5475 16.2147 12.8247 15.4662 13.2733C14.7177 13.722 14.078 14.3311 13.5932 15.0566C13.1083 15.7822 12.7904 16.6063 12.6622 17.4695C12.5341 18.3327 12.5989 19.2135 12.8521 20.0487C13.1052 20.8838 13.5404 21.6524 14.1262 22.2992C14.7121 22.946 15.4341 23.4548 16.2402 23.7891ZM12.0695 11.9043C12.914 11.0599 13.9165 10.39 15.0199 9.93299C16.1232 9.47596 17.3058 9.24074 18.5 9.24074C19.6943 9.24074 20.8768 9.47596 21.9802 9.93299C23.0835 10.39 24.0861 11.0599 24.9305 11.9043C25.775 12.7488 26.4449 13.7513 26.9019 14.8547C27.3589 15.958 27.5942 17.1406 27.5942 18.3349C27.5942 19.5291 27.3589 20.7117 26.9019 21.815C26.4449 22.9184 25.775 23.9209 24.9305 24.7654C23.2251 26.4709 20.9119 27.429 18.5 27.429C16.0881 27.429 13.775 26.4709 12.0695 24.7654C10.364 23.0599 9.4059 20.7468 9.4059 18.3349C9.4059 15.923 10.364 13.6098 12.0695 11.9043ZM29.6111 10.5951C29.8204 10.3977 29.9879 10.1603 30.1038 9.89698C30.2196 9.63367 30.2815 9.34978 30.2857 9.06213C30.2899 8.77448 30.2363 8.48891 30.1282 8.22233C30.02 7.95576 29.8595 7.71359 29.6561 7.51017C29.4526 7.30675 29.2105 7.14621 28.9439 7.03806C28.6773 6.92991 28.3918 6.87634 28.1041 6.88054C27.8164 6.88473 27.5326 6.9466 27.2693 7.06247C27.0059 7.17835 26.7686 7.34588 26.5711 7.55514C26.1872 7.96212 25.977 8.5027 25.9852 9.06213C25.9934 9.62156 26.2192 10.1558 26.6148 10.5514C27.0104 10.947 27.5447 11.1729 28.1041 11.181C28.6635 11.1892 29.2041 10.979 29.6111 10.5951Z" fill="white"/>
</svg>
