<svg width="20" height="28" viewBox="0 0 20 28" fill="none" xmlns="http://www.w3.org/2000/svg">
<path d="M10.0002 0.445801C4.67492 0.445801 0.342529 4.7782 0.342529 10.1034C0.342529 16.7122 8.98514 26.4142 9.35314 26.8239C9.69874 27.2089 10.3022 27.2082 10.6473 26.8239C11.0151 26.4142 19.6578 16.7122 19.6578 10.1034C19.6577 4.7782 15.3254 0.445801 10.0002 0.445801ZM10.0002 14.9625C7.3209 14.9625 5.14122 12.7827 5.14122 10.1034C5.14122 7.42413 7.32096 5.24444 10.0002 5.24444C12.6794 5.24444 14.8591 7.42419 14.8591 10.1035C14.8591 12.7827 12.6794 14.9625 10.0002 14.9625Z" fill="#C4730A"/>
</svg>
