<svg width="25" height="25" viewBox="0 0 25 25" fill="none" xmlns="http://www.w3.org/2000/svg">
<path d="M18.6667 24.7802C16.4617 24.7782 14.2911 24.2332 12.3467 23.1935L11.7467 22.8602C7.601 20.6312 4.20225 17.2324 1.97333 13.0868L1.64 12.4868C0.573094 10.5314 0.00950749 8.34107 8.29008e-07 6.11347V5.22014C-0.000559171 4.50942 0.282614 3.82787 0.786667 3.32681L3.04 1.07348C3.25884 0.852942 3.56775 0.746648 3.87595 0.785822C4.18415 0.824995 4.45664 1.00521 4.61333 1.27348L7.61333 6.42014C7.91671 6.94399 7.82911 7.60649 7.4 8.03347L4.88 10.5535C4.67072 10.7604 4.62196 11.0802 4.76 11.3402L5.22667 12.2202C6.90272 15.3247 9.4524 17.8698 12.56 19.5402L13.44 20.0202C13.7 20.1582 14.0197 20.1094 14.2267 19.9002L16.7467 17.3802C17.1736 16.9511 17.8361 16.8635 18.36 17.1668L23.5067 20.1668C23.7749 20.3235 23.9552 20.596 23.9943 20.9042C24.0335 21.2124 23.9272 21.5214 23.7067 21.7402L21.4533 23.9935C20.9523 24.4975 20.2707 24.7807 19.56 24.7802H18.6667Z" fill="#C4730A"/>
</svg>
