<svg width="37" height="25" viewBox="0 0 37 25" fill="none" xmlns="http://www.w3.org/2000/svg">
<path d="M35.5375 4.19644C35.3362 3.47819 34.9439 2.82791 34.4026 2.31475C33.8459 1.78581 33.1636 1.40745 32.4201 1.21537C29.6376 0.481957 18.4897 0.481957 18.4897 0.481957C13.8422 0.429081 9.19595 0.661643 4.57702 1.17833C3.83351 1.38459 3.15251 1.77141 2.59457 2.30438C2.04637 2.83185 1.64928 3.48229 1.44185 4.19496C0.943565 6.87933 0.701463 9.60496 0.71881 12.3351C0.70103 15.0628 0.942539 17.7876 1.44185 20.4753C1.64484 21.185 2.04044 21.8325 2.59013 22.3555C3.13982 22.8785 3.82434 23.2563 4.57702 23.4564C7.39659 24.1883 18.4897 24.1883 18.4897 24.1883C23.143 24.2412 27.7952 24.0087 32.4201 23.4919C33.1636 23.2999 33.8459 22.9215 34.4026 22.3925C34.9438 21.8795 35.3355 21.2291 35.536 20.5109C36.0473 17.8275 36.2959 15.1008 36.2783 12.3692C36.3168 9.62609 36.0685 6.88647 35.5375 4.19496V4.19644ZM14.9456 17.4083V7.26345L24.2207 12.3366L14.9456 17.4083Z" fill="white"/>
</svg>
